<?xml version="1.0" standalone="no"?><!DOCTYPE svg PUBLIC "-//W3C//DTD SVG 1.1//EN" "http://www.w3.org/Graphics/SVG/1.1/DTD/svg11.dtd"><svg t="1562834307544" class="icon" viewBox="0 0 1024 1024" version="1.1" xmlns="http://www.w3.org/2000/svg" p-id="4919" xmlns:xlink="http://www.w3.org/1999/xlink" width="32" height="32"><defs><style type="text/css"></style></defs><path d="M1008.220618 479.053634 890.590548 599.88256c-9.674337 9.559727-25.363667 9.559727-35.038004 0L738.697115 479.053634c-13.888312-16.573467-4.606925-22.475897 5.067412-32.048927l106.994849 0c-29.523407-163.004491-169.868829-286.59839-338.88422-286.59839-130.670062 0-244.330728 73.836659-302.836213 182.665273l-58.369386-23.718191C218.707141 187.114608 354.796632 96.721879 511.875157 96.721879c203.703425 0 372.013759 151.969157 402.236084 350.281805l89.036849 0C1012.827543 456.577736 1017.893932 469.486744 1008.220618 479.053634L1008.220618 479.053634zM169.530115 453.360462l117.630071 120.822786c9.674337 9.56689 4.607948 22.488177-5.072529 32.048927l-101.850689 0c40.929178 146.998959 173.808558 254.752078 331.638189 254.752078 120.108518 0 225.772047-62.443168 287.517319-157.037593l58.95881 23.956621C786.537703 845.838298 658.426931 924.676877 511.875157 924.676877c-192.631252 0-353.326141-135.975904-395.806651-318.443679L22.704095 606.233198c-9.680477-9.56075-18.955724-15.46932-5.067412-32.048927l116.855428-120.822786C144.166447 443.794595 159.855778 443.794595 169.530115 453.360462L169.530115 453.360462zM169.530115 453.360462" p-id="4920" fill="#bfbfbf"></path></svg>