<?xml version="1.0" standalone="no"?><!DOCTYPE svg PUBLIC "-//W3C//DTD SVG 1.1//EN" "http://www.w3.org/Graphics/SVG/1.1/DTD/svg11.dtd"><svg t="1546657594877" class="icon" style="" viewBox="0 0 1024 1024" version="1.1" xmlns="http://www.w3.org/2000/svg" p-id="3814" xmlns:xlink="http://www.w3.org/1999/xlink" width="16" height="16"><defs><style type="text/css">@font-face { font-family: nc_iconfont; src: url("//at.alicdn.com/t/font_1465353706_4784257.eot?#iefix") format("embedded-opentype"), url("//at.alicdn.com/t/font_1465353706_4784257.woff") format("woff"), url("//at.alicdn.com/t/font_1465353706_4784257.ttf") format("truetype"), url("//at.alicdn.com/t/font_1465353706_4784257.svg#iconfont") format("svg"); }
@font-face { font-family: ncpc_iconfont; src: url("//at.alicdn.com/t/font_384029_rhzpmteb25oecdi.eot?#iefix") format("embedded-opentype"), url("//at.alicdn.com/t/font_384029_rhzpmteb25oecdi.woff") format("woff"), url("//at.alicdn.com/t/font_384029_rhzpmteb25oecdi.ttf") format("truetype"), url("//at.alicdn.com/t/font_384029_rhzpmteb25oecdi.svg#ncpc_iconfont") format("svg"); }
</style></defs><path d="M919.117255 245.699911 757.414409 83.997066c-22.323425-22.323425-58.512648-22.323425-80.836073 0l-161.702845 161.702845c-22.323425 22.323425-22.323425 58.512648 0 80.836073l161.702845 161.702845c22.323425 22.323425 58.511625 22.323425 80.836073 0l161.702845-161.702845C941.440679 304.211537 941.440679 268.023336 919.117255 245.699911L919.117255 245.699911zM716.996884 447.819259 555.295062 286.117436l161.701822-161.701822 161.701822 161.701822L716.996884 447.819259 716.996884 447.819259zM373.983623 114.611318 145.308457 114.611318c-31.585369 0-57.169047 25.582655-57.169047 57.169047l0 228.675166c0 31.585369 25.582655 57.169047 57.169047 57.169047l228.675166 0c31.585369 0 57.169047-25.582655 57.169047-57.169047L431.15267 171.779342C431.15267 140.193972 405.568992 114.611318 373.983623 114.611318L373.983623 114.611318zM373.983623 571.96165 145.308457 571.96165c-31.585369 0-57.169047 25.582655-57.169047 57.169047l0 228.675166c0 31.585369 25.582655 57.169047 57.169047 57.169047l228.675166 0c31.585369 0 57.169047-25.582655 57.169047-57.169047L431.15267 629.130697C431.15267 597.544305 405.568992 571.96165 373.983623 571.96165L373.983623 571.96165zM831.333956 571.96165 602.658789 571.96165c-31.585369 0-57.169047 25.582655-57.169047 57.169047l0 228.675166c0 31.585369 25.582655 57.169047 57.169047 57.169047l228.675166 0c31.585369 0 57.169047-25.582655 57.169047-57.169047L888.503003 629.130697C888.503003 597.544305 862.920348 571.96165 831.333956 571.96165L831.333956 571.96165z" fill="#bfbfbf" p-id="3815"></path></svg>