<?xml version="1.0" standalone="no"?><!DOCTYPE svg PUBLIC "-//W3C//DTD SVG 1.1//EN" "http://www.w3.org/Graphics/SVG/1.1/DTD/svg11.dtd"><svg t="1563433956632" class="icon" viewBox="0 0 1024 1024" version="1.1" xmlns="http://www.w3.org/2000/svg" p-id="1983" xmlns:xlink="http://www.w3.org/1999/xlink" width="32" height="32"><defs><style type="text/css"></style></defs><path d="M890.176 1024H127.18A127.18 127.18 0 0 1 0 896.8V133.538C0 63.27 57.774 0.296 128.04 0.296h511.975v63.979H128.04c-35.144 0-64.43 34.12-64.43 69.263V896.82a63.57 63.57 0 0 0 63.57 63.57h762.996c35.082 0 69.795-29.225 69.795-64.348V384.19h64.02v511.852c0 70.266-63.631 127.958-133.815 127.958M510.11 715.758c-9.277 9.298-20.93 13.968-32.931 16.302L198.818 869.746c-31.334 14.52-56.422-13.537-44.892-44.871l137.625-278.526c2.334-12 6.983-23.654 16.302-32.952L802.379 18.625a63.61 63.61 0 0 1 89.927 0l112.352 112.435a63.59 63.59 0 0 1 0 89.947L510.11 715.758m-295.278 70.594c-7.27 14.684 6.759 29.696 22.405 22.446L409.166 704.72l-90.275-90.337-104.058 171.97m160.419-205.495l67.44 67.46c12.41 12.411-19.66-19.68 22.487 22.467l359.666-359.81-113.192-111.636L352.785 558.33l22.467 22.528m561.986-427.27l-67.44-67.461a31.723 31.723 0 0 0-44.953 0l-65.822 65.842 110.755 114.053 67.44-67.461a31.805 31.805 0 0 0 0.02-44.974m0 0z" fill="#bfbfbf" p-id="1984"></path></svg>