<?xml version="1.0" standalone="no"?><!DOCTYPE svg PUBLIC "-//W3C//DTD SVG 1.1//EN" "http://www.w3.org/Graphics/SVG/1.1/DTD/svg11.dtd"><svg t="1563158214068" class="icon" viewBox="0 0 1024 1024" version="1.1" xmlns="http://www.w3.org/2000/svg" p-id="1966" xmlns:xlink="http://www.w3.org/1999/xlink" width="32" height="32"><defs><style type="text/css"></style></defs><path d="M57.6 704c38.4 44.8 96 70.4 160 70.4 51.2 115.2 160 198.4 294.4 198.4s243.2-83.2 294.4-198.4c57.6 0 115.2-25.6 160-70.4 38.4-44.8 64-102.4 57.6-166.4-6.4-128-108.8-224-230.4-224h-57.6c-19.2 0-32 12.8-32 32s12.8 32 32 32h57.6c76.8 0 140.8 51.2 160 121.6 25.6 102.4-51.2 204.8-153.6 204.8h-38.4l-12.8 32c-32 76.8-96 140.8-179.2 160-121.6 32-243.2-32-294.4-153.6L256 704h-32C140.8 704 70.4 640 64 556.8c-6.4-44.8 12.8-89.6 44.8-121.6S179.2 384 224 384h64c19.2-6.4 32-19.2 32-38.4s-12.8-32-32-32h-57.6C108.8 313.6 6.4 409.6 0 537.6c0 57.6 19.2 121.6 57.6 166.4z" p-id="1967" fill="#bfbfbf"></path><path d="M550.4 627.2c-6.4 12.8-25.6 19.2-38.4 19.2-12.8 0-32-6.4-38.4-19.2L358.4 512c-12.8-12.8-12.8-32 0-44.8 12.8-12.8 32-12.8 44.8 0l70.4 76.8V83.2c6.4-19.2 19.2-32 38.4-32s32 12.8 32 32v454.4l70.4-76.8c6.4 0 19.2-6.4 25.6-6.4 6.4 0 19.2 6.4 25.6 12.8 6.4 6.4 6.4 12.8 6.4 25.6 0 6.4-6.4 19.2-6.4 25.6L550.4 627.2z" p-id="1968" fill="#bfbfbf"></path></svg>