<?xml version="1.0" standalone="no"?><!DOCTYPE svg PUBLIC "-//W3C//DTD SVG 1.1//EN" "http://www.w3.org/Graphics/SVG/1.1/DTD/svg11.dtd"><svg t="1563158744207" class="icon" viewBox="0 0 1024 1024" version="1.1" xmlns="http://www.w3.org/2000/svg" p-id="2779" xmlns:xlink="http://www.w3.org/1999/xlink" width="32" height="32"><defs><style type="text/css"></style></defs><path d="M641.4848 772.4352l-89.8752 92.6912V469.664H465.4848v390.0352l-104.8512-102.2336-59.9168 59.9104 209.7024 205.9584 29.9584-29.9584 179.7504-176-59.9168-59.9104z" fill="#bfbfbf" p-id="2780"></path><path d="M832 320.6656v-0.096C831.9488 143.8848 688.6976 0.6656 512 0.6656S192.0512 143.8848 192 320.5696h-1.5808v0.1344C85.1136 321.5616 0 407.1616 0 512.6656c0 105.4976 85.1136 191.1104 190.4192 191.9616v0.0384h89.6v-89.6H192c-56.5504 0-102.4-45.8496-102.4-102.4 0-56.5568 45.8496-102.4 102.4-102.4v-0.096h88.0192V320.6656H281.6c0-127.2448 103.1552-230.4 230.4-230.4 127.2512 0 230.4 103.1552 230.4 230.4v89.504h89.6v0.096c56.5504 0 102.4 45.8496 102.4 102.4 0 56.5568-45.8496 102.4-102.4 102.4h-89.6v89.6h89.6c106.0352 0 192-85.9648 192-192 0-106.0288-85.9648-192-192-192z" fill="#bfbfbf" p-id="2781"></path></svg>