<?xml version="1.0" standalone="no"?><!DOCTYPE svg PUBLIC "-//W3C//DTD SVG 1.1//EN" "http://www.w3.org/Graphics/SVG/1.1/DTD/svg11.dtd"><svg t="1546657723301" class="icon" style="" viewBox="0 0 1024 1024" version="1.1" xmlns="http://www.w3.org/2000/svg" p-id="4615" xmlns:xlink="http://www.w3.org/1999/xlink" width="16" height="16"><defs><style type="text/css">@font-face { font-family: nc_iconfont; src: url("//at.alicdn.com/t/font_1465353706_4784257.eot?#iefix") format("embedded-opentype"), url("//at.alicdn.com/t/font_1465353706_4784257.woff") format("woff"), url("//at.alicdn.com/t/font_1465353706_4784257.ttf") format("truetype"), url("//at.alicdn.com/t/font_1465353706_4784257.svg#iconfont") format("svg"); }
@font-face { font-family: ncpc_iconfont; src: url("//at.alicdn.com/t/font_384029_rhzpmteb25oecdi.eot?#iefix") format("embedded-opentype"), url("//at.alicdn.com/t/font_384029_rhzpmteb25oecdi.woff") format("woff"), url("//at.alicdn.com/t/font_384029_rhzpmteb25oecdi.ttf") format("truetype"), url("//at.alicdn.com/t/font_384029_rhzpmteb25oecdi.svg#ncpc_iconfont") format("svg"); }
</style></defs><path d="M0 55.466667C0 24.832 38.890667 0 85.546667 0h852.906666C985.706667 0 1024 24.618667 1024 55.466667v166.4c0 30.634667-38.890667 55.466667-85.546667 55.466666H85.546667C38.293333 277.333333 0 252.714667 0 221.866667V55.466667zM682.666667 106.666667v64h170.666666V106.666667h-170.666666zM0 418.133333C0 387.498667 38.890667 362.666667 85.546667 362.666667h852.906666c47.253333 0 85.546667 24.618667 85.546667 55.466666v166.4c0 30.634667-38.890667 55.466667-85.546667 55.466667H85.546667C38.293333 640 0 615.381333 0 584.533333v-166.4zM682.666667 490.666667v64h170.666666v-64h-170.666666zM0 802.133333C0 771.498667 38.890667 746.666667 85.546667 746.666667h852.906666c47.253333 0 85.546667 24.618667 85.546667 55.466666v166.4c0 30.634667-38.890667 55.466667-85.546667 55.466667H85.546667C38.293333 1024 0 999.381333 0 968.533333v-166.4zM682.666667 853.333333v64h170.666666v-64h-170.666666z" fill="#bfbfbf" p-id="4616"></path></svg>