<?xml version="1.0" standalone="no"?><!DOCTYPE svg PUBLIC "-//W3C//DTD SVG 1.1//EN" "http://www.w3.org/Graphics/SVG/1.1/DTD/svg11.dtd"><svg t="1546657742972" class="icon" style="" viewBox="0 0 1024 1024" version="1.1" xmlns="http://www.w3.org/2000/svg" p-id="4884" xmlns:xlink="http://www.w3.org/1999/xlink" width="16" height="16"><defs><style type="text/css">@font-face { font-family: nc_iconfont; src: url("//at.alicdn.com/t/font_1465353706_4784257.eot?#iefix") format("embedded-opentype"), url("//at.alicdn.com/t/font_1465353706_4784257.woff") format("woff"), url("//at.alicdn.com/t/font_1465353706_4784257.ttf") format("truetype"), url("//at.alicdn.com/t/font_1465353706_4784257.svg#iconfont") format("svg"); }
@font-face { font-family: ncpc_iconfont; src: url("//at.alicdn.com/t/font_384029_rhzpmteb25oecdi.eot?#iefix") format("embedded-opentype"), url("//at.alicdn.com/t/font_384029_rhzpmteb25oecdi.woff") format("woff"), url("//at.alicdn.com/t/font_384029_rhzpmteb25oecdi.ttf") format("truetype"), url("//at.alicdn.com/t/font_384029_rhzpmteb25oecdi.svg#ncpc_iconfont") format("svg"); }
</style></defs><path d="M857.6 716.8c0-64-51.2-108.8-108.8-108.8-64 0-108.8 51.2-108.8 108.8 0 64 51.2 108.8 108.8 108.8 57.6 0 108.8-51.2 108.8-108.8z m-108.8 64c-38.4 0-64-25.6-64-64s25.6-64 64-64 64 25.6 64 64c0 32-32 64-64 64z" fill="#bfbfbf" p-id="4885"></path><path d="M940.8 896l51.2-89.6c6.4-6.4 6.4-12.8 6.4-19.2 0-6.4-6.4-12.8-12.8-19.2l-44.8-25.6v-44.8l38.4-25.6c6.4-6.4 12.8-6.4 12.8-12.8V640l-51.2-89.6c0-6.4-6.4-12.8-19.2-12.8-6.4 0-12.8 0-19.2 6.4l-38.4 25.6c-6.4-6.4-19.2-12.8-32-19.2v-57.6c0-6.4 0-12.8-6.4-19.2-6.4-6.4-12.8-6.4-19.2-6.4h-115.2c-6.4 0-12.8 0-19.2 6.4-6.4 6.4-6.4 12.8-6.4 19.2v38.4c-19.2 6.4-32 19.2-38.4 25.6l-38.4-19.2c-6.4-6.4-12.8-6.4-19.2-6.4-6.4 0-12.8 6.4-12.8 12.8l-57.6 89.6c-6.4 12.8 0 25.6 6.4 38.4l38.4 19.2v51.2L512 768c-6.4 6.4-12.8 6.4-12.8 12.8v19.2l57.6 96c6.4 6.4 6.4 12.8 19.2 12.8 6.4 0 12.8 0 19.2-6.4l38.4-25.6c6.4 6.4 19.2 12.8 32 19.2v64c0 6.4 0 12.8 6.4 19.2 6.4 6.4 12.8 6.4 19.2 6.4h115.2c6.4 0 12.8 0 19.2-6.4s6.4-12.8 6.4-19.2v-64c12.8-6.4 19.2-12.8 32-19.2l38.4 25.6c6.4 6.4 12.8 6.4 19.2 0 12.8 0 19.2 0 19.2-6.4z m-25.6-51.2l-38.4-19.2c-12.8-6.4-19.2-6.4-32 0-12.8 12.8-32 25.6-51.2 32-12.8 6.4-19.2 12.8-19.2 25.6v51.2h-64v-51.2c0-12.8-6.4-25.6-19.2-25.6-19.2-6.4-32-12.8-44.8-25.6-6.4-6.4-19.2-6.4-32 0l-32 19.2-25.6-44.8 32-19.2c12.8-6.4 12.8-19.2 12.8-32-6.4-12.8-6.4-25.6-6.4-38.4 0-12.8 0-19.2 6.4-32 0-12.8 0-25.6-12.8-25.6l-32-19.2 25.6-44.8 25.6 19.2c12.8 6.4 19.2 6.4 32-6.4 19.2-19.2 32-25.6 51.2-32 12.8 0 19.2-12.8 19.2-25.6v-25.6h64v32c0 12.8 6.4 19.2 12.8 25.6 19.2 6.4 38.4 19.2 51.2 32 6.4 6.4 19.2 6.4 32 6.4l32-19.2 25.6 44.8-38.4 19.2c-6.4 6.4-12.8 19.2-12.8 25.6 6.4 19.2 6.4 44.8 0 64 0 12.8 0 19.2 12.8 25.6l38.4 19.2-12.8 44.8z" fill="#bfbfbf" p-id="4886"></path><path d="M614.4 947.2c0-12.8-12.8-25.6-25.6-25.6-38.4 6.4-70.4 6.4-108.8 6.4-249.6 0-384-64-384-102.4 0-6.4 0-12.8-6.4-12.8v-121.6l6.4 6.4c70.4 44.8 217.6 76.8 384 76.8 12.8 0 25.6-12.8 25.6-25.6s-12.8-25.6-25.6-25.6c-249.6 0-384-64-384-102.4 0-6.4 0-12.8-6.4-12.8v-128l6.4 6.4c70.4 44.8 217.6 76.8 384 76.8h19.2c12.8 0 25.6-12.8 25.6-25.6S512 512 499.2 512h-19.2c-249.6 0-384-64-384-102.4 0-6.4 0-12.8-6.4-12.8v-128l6.4 6.4c70.4 44.8 217.6 76.8 384 76.8 153.6 0 300.8-25.6 371.2-70.4h6.4v217.6c0 12.8 12.8 25.6 25.6 25.6s25.6-12.8 25.6-25.6V230.4c0-6.4 6.4-19.2 6.4-25.6 0-44.8-44.8-89.6-134.4-115.2C704 64 595.2 51.2 486.4 51.2c-108.8 0-211.2 12.8-288 38.4-89.6 25.6-134.4 64-140.8 108.8 0 6.4-6.4 6.4-6.4 12.8v633.6c0 6.4 6.4 12.8 12.8 19.2 19.2 38.4 70.4 70.4 153.6 89.6 76.8 19.2 172.8 32 275.2 32 38.4 0 76.8 0 108.8-6.4 0 0 12.8-12.8 12.8-32zM480 96c224 0 352 51.2 377.6 89.6V204.8c-12.8 19.2-57.6 44.8-121.6 57.6-76.8 19.2-166.4 32-256 32-249.6 0-384-64-384-102.4 0-32 128-96 384-96z" fill="#bfbfbf" p-id="4887"></path></svg>