<?xml version="1.0" standalone="no"?><!DOCTYPE svg PUBLIC "-//W3C//DTD SVG 1.1//EN" "http://www.w3.org/Graphics/SVG/1.1/DTD/svg11.dtd"><svg t="1557908676682" class="icon" style="" viewBox="0 0 1024 1024" version="1.1" xmlns="http://www.w3.org/2000/svg" p-id="2716" xmlns:xlink="http://www.w3.org/1999/xlink" width="32" height="32"><defs><style type="text/css"></style></defs><path d="M358.392 553.208a45.36 45.36 0 0 0-45.352 45.36v324.072a45.36 45.36 0 1 0 90.704 0V598.568a45.344 45.344 0 0 0-45.352-45.36zM108.376 682.6a45.344 45.344 0 0 0-45.352 45.352v194.688a45.36 45.36 0 1 0 90.704 0V727.952a45.344 45.344 0 0 0-45.352-45.352zM608.408 673.64a45.36 45.36 0 0 0-45.36 45.36v203.64a45.36 45.36 0 1 0 90.712 0V719a45.36 45.36 0 0 0-45.352-45.36zM858.424 429.064a45.36 45.36 0 0 0-45.36 45.352v448.216a45.36 45.36 0 0 0 90.712 0V474.424a45.36 45.36 0 0 0-45.352-45.36z" fill="#bfbfbf" p-id="2717"></path><path d="M959.384 253.752l-43.576-160.712c-0.152-0.688-0.256-1.376-0.448-2.064a46 46 0 0 0-1.544-4.656 45.328 45.328 0 0 0-54.608-28.728 45.4 45.4 0 0 0-10.816 4.544L695.464 103.6A45.36 45.36 0 0 0 719.2 191.16l56.4-15.296-177.344 266.592-231.424-187.752a46.72 46.72 0 0 0-3.856-2.832l-0.272-0.16a44.208 44.208 0 0 0-3.608-2.112c-0.464-0.24-0.952-0.432-1.416-0.656-0.864-0.416-1.72-0.84-2.6-1.192-0.744-0.304-1.504-0.528-2.256-0.792-0.632-0.216-1.248-0.464-1.88-0.648-0.888-0.256-1.792-0.448-2.688-0.656-0.52-0.12-1.032-0.264-1.56-0.368-0.92-0.176-1.848-0.288-2.776-0.4-0.512-0.064-1.032-0.168-1.552-0.208-0.864-0.08-1.736-0.096-2.608-0.128-0.592-0.016-1.176-0.072-1.768-0.072-0.768 0-1.52 0.072-2.288 0.112-0.696 0.04-1.392 0.048-2.088 0.12-0.664 0.072-1.32 0.192-1.976 0.288-0.784 0.112-1.576 0.2-2.352 0.352-0.592 0.12-1.168 0.288-1.752 0.432-0.832 0.2-1.664 0.384-2.496 0.632-0.568 0.168-1.12 0.4-1.68 0.592-0.816 0.28-1.64 0.544-2.44 0.872-0.648 0.264-1.264 0.592-1.896 0.88-0.696 0.328-1.4 0.616-2.08 0.984-0.84 0.44-1.648 0.952-2.464 1.456-0.448 0.272-0.904 0.512-1.344 0.808a45.664 45.664 0 0 0-3.16 2.32c-0.152 0.128-0.312 0.224-0.464 0.344a45.04 45.04 0 0 0-3.384 3.056l-0.048 0.04-0.08 0.08-229.688 229.68a45.352 45.352 0 0 0 32.072 77.424 45.216 45.216 0 0 0 32.072-13.288l200.856-200.856L579.52 544.056l0.064 0.056 0.24 0.192c1.088 0.88 2.208 1.704 3.368 2.48l0.088 0.064 0.2 0.12a45.4 45.4 0 0 0 11.224 5.336l1.064 0.328c1.824 0.52 3.68 0.944 5.56 1.24 0.352 0.056 0.712 0.088 1.056 0.136 1.912 0.256 3.832 0.424 5.784 0.432l0.184 0.016c0.232 0 0.472-0.04 0.712-0.04 1.504-0.032 3-0.112 4.496-0.272 0.608-0.072 1.2-0.2 1.816-0.296 1.136-0.176 2.256-0.352 3.368-0.616 0.656-0.16 1.288-0.36 1.936-0.536 1.048-0.288 2.088-0.592 3.112-0.968 0.664-0.232 1.304-0.504 1.952-0.784a48.64 48.64 0 0 0 2.88-1.288c0.664-0.328 1.304-0.688 1.952-1.048 0.888-0.504 1.76-1.024 2.624-1.584a46.4 46.4 0 0 0 6.112-4.784c0.736-0.688 1.432-1.424 2.128-2.168 0.552-0.592 1.112-1.168 1.64-1.8 0.168-0.208 0.376-0.384 0.544-0.6 0.784-0.968 1.488-1.968 2.176-2.984 0.112-0.168 0.248-0.304 0.36-0.472l0.144-0.216 0.096-0.136 209.528-314.984 15.888 58.616a45.376 45.376 0 0 0 55.648 31.912 45.376 45.376 0 0 0 31.92-55.656z" fill="#bfbfbf" p-id="2718"></path></svg>